<svg width="38" height="38" viewBox="0 0 38 38" fill="none" xmlns="http://www.w3.org/2000/svg">
<path d="M18.7416 7.0148L7.25762 7.01405C5.11749 7.01391 3.38267 8.74872 3.3828 10.8889L3.38383 27.8514C3.38396 29.9916 5.11898 31.7266 7.25911 31.7267L18.7431 31.7275C20.8832 31.7276 22.618 29.9928 22.6179 27.8527L22.6169 10.8901C22.6167 8.74998 20.8817 7.01494 18.7416 7.0148Z" stroke="#1E1E1E" stroke-width="1.55002" stroke-linecap="round" stroke-linejoin="round"/>
<path d="M7.11597 12.2891L7.60439 12.2891" stroke="#1E1E1E" stroke-width="1.55002" stroke-linecap="round" stroke-linejoin="round"/>
<path d="M11.3491 12.2894L19.5139 12.2899" stroke="#1E1E1E" stroke-width="1.55002" stroke-linecap="round" stroke-linejoin="round"/>
<path d="M7.00244 17.1232L7.48272 17.1232" stroke="#1E1E1E" stroke-width="1.55002" stroke-linecap="round" stroke-linejoin="round"/>
<path d="M11.2275 17.1235L19.3923 17.124" stroke="#1E1E1E" stroke-width="1.55002" stroke-linecap="round" stroke-linejoin="round"/>
<path d="M6.88062 21.957L7.3609 21.9571" stroke="#1E1E1E" stroke-width="1.55002" stroke-linecap="round" stroke-linejoin="round"/>
<path d="M11.1057 21.9573L19.2705 21.9579" stroke="#1E1E1E" stroke-width="1.55002" stroke-linecap="round" stroke-linejoin="round"/>
<path d="M33.1082 11.7682L26.114 11.7677L26.1149 26.9755L33.1091 26.976L33.1082 11.7682Z" fill="#EBEEFD" stroke="#1E1E1E" stroke-width="1.55002" stroke-linecap="round" stroke-linejoin="round"/>
<path d="M33.108 7.01572L26.1138 7.01526L26.1139 8.91623L33.1081 8.91669L33.108 7.01572Z" stroke="#1E1E1E" stroke-width="1.55002" stroke-linecap="round" stroke-linejoin="round"/>
<path d="M26.115 26.9755L29.6124 31.7282L33.1092 26.976L26.115 26.9755Z" stroke="#1E1E1E" stroke-width="1.55002" stroke-linecap="round" stroke-linejoin="round"/>
</svg>
