<svg width="17" height="17" viewBox="0 0 17 17" fill="none" xmlns="http://www.w3.org/2000/svg">
<path d="M0.583416 6.32287L3.11675 6.0062C3.18272 5.83467 3.26189 5.67304 3.35425 5.5213C3.44661 5.36957 3.54557 5.22113 3.65112 5.07599L2.66154 2.72078L6.42196 0.543701L7.96571 2.58224C8.05807 2.56905 8.14713 2.56245 8.23289 2.56245L8.76727 2.56245C8.85303 2.56245 8.9421 2.56905 9.03446 2.58224L10.5782 0.543701L14.3386 2.72078L13.349 5.07599C13.4546 5.22113 13.5536 5.37287 13.6459 5.5312C13.7383 5.68953 13.8174 5.84787 13.8834 6.0062L16.4167 6.32287L16.4167 10.677L13.8834 10.9937C13.8174 11.1652 13.7383 11.3269 13.6459 11.4786C13.5536 11.6303 13.4546 11.7788 13.349 11.9239L14.3386 14.2791L10.5782 16.4562L9.03446 14.4177C8.9421 14.4309 8.85303 14.4375 8.76727 14.4375L8.23289 14.4375C8.14713 14.4375 8.05807 14.4243 7.96571 14.3979L6.42196 16.4364L2.66154 14.2593L3.65112 11.9239C3.54557 11.7788 3.44661 11.627 3.35425 11.4687C3.26189 11.3104 3.18272 11.152 3.11675 10.9937L0.583416 10.677L0.583416 6.32287ZM2.16675 7.70828L2.16675 9.27183L4.26466 9.54891C4.37022 9.95794 4.52526 10.3373 4.72977 10.6869C4.93428 11.0366 5.18168 11.3565 5.47196 11.6468L4.6605 13.6062L6.00633 14.3781L7.29279 12.676C7.47751 12.742 7.67213 12.7881 7.87664 12.8145C8.08116 12.8409 8.28897 12.8541 8.50008 12.8541C8.71119 12.8541 8.919 12.8409 9.12352 12.8145C9.32803 12.7881 9.52265 12.742 9.70737 12.676L10.9938 14.3781L12.3397 13.6062L11.5084 11.6468C11.8119 11.3565 12.0659 11.0366 12.2704 10.6869C12.4749 10.3373 12.6299 9.95794 12.7355 9.54891L14.8334 9.29162L14.8334 7.72808L12.7355 7.45099C12.6299 7.04196 12.4749 6.66262 12.2704 6.31297C12.0659 5.96332 11.8185 5.64335 11.5282 5.35308L12.3397 3.3937L10.9938 2.62183L9.72717 4.32391C9.52925 4.25794 9.33133 4.21176 9.13342 4.18537C8.9355 4.15898 8.72439 4.14578 8.50008 4.14578C8.28897 4.14578 8.08446 4.15898 7.88654 4.18537C7.68862 4.21176 7.49071 4.25794 7.29279 4.32391L6.00633 2.62183L4.6605 3.3937L5.49175 5.35308C5.18828 5.64335 4.93428 5.96332 4.72977 6.31297C4.52526 6.66262 4.37022 7.04196 4.26466 7.45099L2.16675 7.70828ZM5.72925 8.53953C5.72925 9.30481 5.99973 9.95794 6.54071 10.4989C7.08168 11.0399 7.7348 11.3104 8.50008 11.3104C9.26536 11.3104 9.91848 11.0399 10.4595 10.4989C11.0004 9.95794 11.2709 9.30481 11.2709 8.53953C11.2709 7.76106 11.0004 7.10464 10.4595 6.57026C9.91848 6.03589 9.26536 5.7687 8.50008 5.7687C7.7348 5.7687 7.08168 6.03589 6.54071 6.57026C5.99973 7.10464 5.72925 7.76106 5.72925 8.53953Z" fill="#1D1B20"/>
</svg>
