<svg width="33" height="30" viewBox="0 0 33 30" fill="none" xmlns="http://www.w3.org/2000/svg">
<g clip-path="url(#clip0_2001_416)">
<path d="M10.3761 11.6705C10.3761 11.6705 7.9968 14.6119 0.00193778 15.0866M35.2117 28.3161L35.2165 15.0811C27.222 14.6001 24.8473 11.6659 24.8473 11.6659" stroke="#1E1E1E" stroke-width="3" stroke-miterlimit="10"/>
<path d="M16.4092 16.1686C14.1381 16.3032 13.0586 19.0631 12.9223 23.007C12.8594 24.9224 12.4959 26.189 12.143 26.982C11.8836 27.5588 11.0747 27.5693 10.8157 26.9927C10.0697 25.2939 8.92001 21.6799 9.3369 16.1604C9.43071 14.8835 9.24453 13.6067 8.71611 12.4433C6.96508 8.51023 4.00276 -0.663774 16.4143 2.5659L17.4513 2.56559C29.8653 -0.671431 26.8961 8.50433 25.1421 12.4384C24.6231 13.6022 24.4256 14.8894 24.5185 16.1559C24.9312 21.6751 23.7787 25.2898 23.0315 26.9891C22.7824 27.5658 21.9631 27.5558 21.7041 26.9792C21.3518 26.1864 20.9894 24.92 20.9279 23.0047C20.7946 19.0609 19.7171 16.3015 17.4462 16.1683L16.4092 16.1686Z" fill="#EBEEFD" stroke="#1E1E1E" stroke-width="3" stroke-miterlimit="10"/>
</g>
<defs>
<clipPath id="clip0_2001_416">
<rect width="32.9752" height="29.4809" fill="white" transform="translate(32.9976 29.481) rotate(179.957)"/>
</clipPath>
</defs>
</svg>
