<svg width="51" height="48" viewBox="0 0 51 48" fill="none" xmlns="http://www.w3.org/2000/svg">
<g opacity="0.6">
<path fill-rule="evenodd" clip-rule="evenodd" d="M30.7988 3.82347C27.6223 5.10434 23.0378 5.10433 19.8613 3.82346C17.2804 2.78276 14.3935 2.68625 11.7298 3.77676C6.10847 6.07807 3.58721 12.8032 6.03382 18.8699C6.03436 18.8712 6.03434 18.8727 6.03374 18.8741V18.8741L6.79725 20.4366C9.37815 25.7185 11.3235 31.2554 12.5972 36.9441L13.8087 42.3556C14.228 43.9113 15.7096 45 17.4075 45C19.2309 45 20.7846 43.7482 21.0741 42.0459L22.7821 32.0018C22.9833 30.8188 24.063 29.9489 25.3301 29.9489C26.5973 29.9489 27.6769 30.8188 27.8781 32.0018L29.5861 42.0459C29.8756 43.7482 31.4293 45 33.2527 45C34.9506 45 36.4322 43.9113 36.8515 42.3556L38.063 36.9441C39.3367 31.2554 41.282 25.7185 43.863 20.4366L44.6265 18.8741V18.8741C44.6259 18.8727 44.6258 18.8712 44.6264 18.8699C47.073 12.8032 44.5517 6.07807 38.9304 3.77676C36.2667 2.68624 33.3798 2.78275 30.7988 3.82347Z" fill="url(#paint0_linear_2004_14)"/>
<g filter="url(#filter0_f_2004_14)">
<path d="M12.7313 7.24499L12.6164 6.72878C12.5216 6.30292 12.1438 6 11.7075 6C11.2581 6 10.8729 6.32088 10.7916 6.76281L10.7078 7.21898C10.3178 9.34044 8.66036 11.002 6.53988 11.3972L5.1187 11.6621C4.73825 11.7331 4.4624 12.0651 4.4624 12.4521C4.4624 12.8505 4.75429 13.1887 5.14838 13.247L6.32412 13.4209C8.55494 13.7508 10.3238 15.4722 10.7144 17.6932L10.7977 18.1667C10.8753 18.6081 11.2587 18.93 11.7069 18.93C12.1426 18.93 12.519 18.6253 12.6098 18.1992L12.7654 17.4684C13.2134 15.3651 14.9163 13.7584 17.0421 13.4333L18.2377 13.2504C18.6322 13.1901 18.9236 12.8508 18.9236 12.4517C18.9236 12.0643 18.6488 11.7315 18.2685 11.6582L17.0268 11.4189C14.8914 11.0073 13.204 9.36763 12.7313 7.24499Z" fill="url(#paint1_linear_2004_14)"/>
</g>
<path d="M12.4419 8.86819L12.1021 6.35223C12.0749 6.15051 11.9026 6 11.6991 6C11.4903 6 11.3155 6.15806 11.2945 6.36576L11.042 8.8627C10.8911 10.3554 9.71834 11.54 8.22724 11.7059L4.79484 12.0878C4.60557 12.1088 4.4624 12.2688 4.4624 12.4592C4.4624 12.6545 4.61272 12.8169 4.80741 12.8319L8.06961 13.0836C9.63887 13.2047 10.8944 14.4354 11.0468 16.002L11.2959 18.5643C11.3161 18.7718 11.4904 18.93 11.6989 18.93C11.9023 18.93 12.0741 18.779 12.1003 18.5773L12.4354 15.9981C12.6402 14.4212 13.9209 13.2028 15.5061 13.0769L18.5785 12.8327C18.7733 12.8172 18.9236 12.6545 18.9236 12.4591C18.9236 12.2686 18.7807 12.1084 18.5914 12.0867L15.3466 11.7148C13.8411 11.5423 12.6447 10.3699 12.4419 8.86819Z" fill="url(#paint2_linear_2004_14)"/>
<g filter="url(#filter1_f_2004_14)">
<path d="M37.7789 25.3828L37.7066 25.0582C37.647 24.7904 37.4094 24.6 37.1351 24.6C36.8526 24.6 36.6103 24.8017 36.5592 25.0796L36.5065 25.3664C36.2613 26.7003 35.2192 27.7451 33.8859 27.9936L32.9923 28.1602C32.753 28.2047 32.5796 28.4135 32.5796 28.6569C32.5796 28.9073 32.7631 29.12 33.0109 29.1567L33.7502 29.266C35.1529 29.4735 36.2651 30.5558 36.5107 31.9523L36.563 32.25C36.6118 32.5276 36.8529 32.73 37.1347 32.73C37.4087 32.73 37.6454 32.5384 37.7024 32.2704L37.8003 31.811C38.082 30.4884 39.1527 29.4782 40.4893 29.2738L41.2411 29.1588C41.4892 29.1209 41.6724 28.9075 41.6724 28.6566C41.6724 28.4131 41.4996 28.2038 41.2604 28.1577L40.4797 28.0072C39.1371 27.7484 38.0761 26.7174 37.7789 25.3828Z" fill="url(#paint3_linear_2004_14)"/>
</g>
<path d="M37.5969 26.4034L37.3832 24.8215C37.3661 24.6946 37.2578 24.6 37.1298 24.6C36.9986 24.6 36.8886 24.6994 36.8754 24.83L36.7167 26.4C36.6218 27.3385 35.8844 28.0834 34.9468 28.1877L32.7886 28.4278C32.6696 28.441 32.5796 28.5416 32.5796 28.6613C32.5796 28.7841 32.6741 28.8862 32.7965 28.8957L34.8477 29.0539C35.8344 29.1301 36.6239 29.9039 36.7196 30.8889L36.8763 32.5001C36.889 32.6305 36.9986 32.73 37.1297 32.73C37.2576 32.73 37.3656 32.6351 37.3821 32.5082L37.5928 30.8865C37.7216 29.895 38.5268 29.1289 39.5236 29.0497L41.4554 28.8962C41.5779 28.8864 41.6724 28.7842 41.6724 28.6612C41.6724 28.5415 41.5825 28.4407 41.4635 28.4271L39.4232 28.1933C38.4766 28.0848 37.7244 27.3476 37.5969 26.4034Z" fill="url(#paint4_linear_2004_14)"/>
</g>
<defs>
<filter id="filter0_f_2004_14" x="0.462402" y="2" width="22.4612" height="20.9301" filterUnits="userSpaceOnUse" color-interpolation-filters="sRGB">
<feFlood flood-opacity="0" result="BackgroundImageFix"/>
<feBlend mode="normal" in="SourceGraphic" in2="BackgroundImageFix" result="shape"/>
<feGaussianBlur stdDeviation="2" result="effect1_foregroundBlur_2004_14"/>
</filter>
<filter id="filter1_f_2004_14" x="28.5796" y="20.6" width="17.0928" height="16.13" filterUnits="userSpaceOnUse" color-interpolation-filters="sRGB">
<feFlood flood-opacity="0" result="BackgroundImageFix"/>
<feBlend mode="normal" in="SourceGraphic" in2="BackgroundImageFix" result="shape"/>
<feGaussianBlur stdDeviation="2" result="effect1_foregroundBlur_2004_14"/>
</filter>
<linearGradient id="paint0_linear_2004_14" x1="10.4551" y1="3" x2="32.6861" y2="44.4798" gradientUnits="userSpaceOnUse">
<stop stop-color="#F0F6F9"/>
<stop offset="1" stop-color="#CDDFF2"/>
</linearGradient>
<linearGradient id="paint1_linear_2004_14" x1="11.693" y1="6" x2="11.693" y2="18.93" gradientUnits="userSpaceOnUse">
<stop stop-color="white"/>
<stop offset="1" stop-color="white"/>
</linearGradient>
<linearGradient id="paint2_linear_2004_14" x1="11.693" y1="6" x2="11.693" y2="18.93" gradientUnits="userSpaceOnUse">
<stop stop-color="white"/>
<stop offset="1" stop-color="white"/>
</linearGradient>
<linearGradient id="paint3_linear_2004_14" x1="37.126" y1="24.6" x2="37.126" y2="32.73" gradientUnits="userSpaceOnUse">
<stop stop-color="white"/>
<stop offset="1" stop-color="white"/>
</linearGradient>
<linearGradient id="paint4_linear_2004_14" x1="37.126" y1="24.6" x2="37.126" y2="32.73" gradientUnits="userSpaceOnUse">
<stop stop-color="white"/>
<stop offset="1" stop-color="white"/>
</linearGradient>
</defs>
</svg>
